<svg id="Layer_1" data-name="Layer 1" xmlns="http://www.w3.org/2000/svg" viewBox="0 0 543.05 526.58"><defs><style>.cls-1{fill:#0de3a5;}.cls-2{fill:#042a3d;}.cls-3{fill:#b1c8cf;}.cls-4{fill:#2ac305;}.cls-5{fill:#fdfefe;}.cls-6{fill:#027270;}</style></defs><title>shenanitagorlgo1</title><rect class="cls-1" y="0.43" width="543" height="526" rx="135.01"/><path class="cls-2" d="M206,526l-55.89.07a22.33,22.33,0,0,0-1-6.87c-.58-1.64-1-2.73-3.09-1.83-4.69,2-9.09,1.13-13.17-1.74-.79-.56-2-1.61-2.47-.39-1.89,4.87-7.2,5.59-10.29,9A44.89,44.89,0,0,1,103,520.37c.24-2.59-1.06-4.82-1.62-7.22-.44-1.9-1-2.26-3-1.45-11.82,4.87-17.17.3-20.67-9.43-3.33-9.22-4.87-18.86-6.75-28.41-2.31-11.73-6.93-22-17-29.18l-3.14-2.51,0-2.52a17.14,17.14,0,0,1,6.54.1l.21.24.31,0c11.66,1.25,17.68,9.18,22.28,18.79,3.91,8.14,4.29,17.23,7,25.71-.28,4.27-1.5,8.56.46,12.79,2.3,4.94,4.48,5.45,8,1.45,2.49-2.84,5.24-5.65,5.59-9.77,3.48-3.31,4.6-7.94,6.69-12,.63-1.24.5-3.43,2.37-3.22,1.64.18,1.63,2.24,2.08,3.62,1.77,5.39.94,10.81.13,16.23-2.88,5.71-3.49,11.26,1,16.56,2,2.39,4.27,2.8,6.15.23,2.79-3.81,5.86-7.63,5.47-12.85,4.64-7,6.61-15,8.86-23.8,3.92,5.7,5.53,10.9,5.2,16.68-.38,1.78-.74,3.57-1.17,5.34-.68,2.76-1.29,5.48.08,8.24,1.51,3,3.29,4.25,5.88,1.1,2.75-3.34,5.5-6.7,5.13-11.44,3.53-5.16,4.6-11,4.46-17.07l-.21-2.33a16.58,16.58,0,0,0,.09-3.44c-2.25-12-8.13-22.2-15.93-31.38-12.45-14.65-26.53-27.23-45.28-33.2-18.1-5.76-36.76,0-47,14A7.53,7.53,0,0,0,42,425.82c-5,5.36-6.09,12.36-7.64,19.05-2.3,9.92-1.46,20-.21,30-5-6.27-10-12.58-12.76-20.26.21-1.63.47-3.26.63-4.89,1-9.66,3.39-18.84,8.24-27.35,6.38-11.19,15.9-18.88,27-24.89,3.66-1,7.29-2.21,11-3.08,7.87-1.85,15.78-1.21,23.69-.11,2.12.29,4.61.67,3.18-3.18-5.28-14.07-3.7-28.4-.76-42.57.82-4-.27-5.37-3.45-6.7-5.81-2.42-11.51-5.12-17.31-7.58-3.5-1.48-5-4.4-5.4-7.76a37.92,37.92,0,0,1,.37-10.4c2-11.06,7.48-20.47,13.21-29.81.94-1.52,2-2.85-.17-4.1-9-5.1-16.4-12.27-24.16-19-.72-1.09-1.44-2.2-2.18-3.29C48.93,250.62,49,244,55.66,235a27.89,27.89,0,0,0,1.47-2.56c10.81-9.42,19.57-21,32.08-29.34-2.94-.89-5-1.58-7-2.1-5.57-1.41-9.28-4.89-9.87-10.53a6.79,6.79,0,0,0-4.25-6c-3.55-1.77-7.14-3.45-10.71-5.18-1.31-1.27-2.55-2.63-4-3.8-12.08-10.11-13.29-23.88-3.17-35.93,4.07-4.84,8.13-9.73,13-13.81,3.21-2.72,3.45-4.89,1.37-8.72-9-16.53-8.21-32.88,2.79-48.23,18.14-25.34,42.77-42.93,70.08-57,9.23-4.75,19.19-4.57,29.07-.84,11.57,4.36,20.19,12.78,29,20.85,3.58,3.3,6.1,3.22,9.9.93a140.19,140.19,0,0,1,25.35-11.67c9.46-3.39,19.07-4.44,28.87-1.53,15.3,4.56,21.27,15.56,16.68,30.78-.62,2.07-1.37,4.11-2.05,6.16-2.42,2.82-1,5.23.83,7.57a90.79,90.79,0,0,1,10.07,14.82c3.33,6.42,3.32,6.4,8.83,1.37,1.59-1.45,3.3-2.77,5-4.12,16.39-13.15,45.6-14.32,61.94,5.5a79.22,79.22,0,0,1,17,36.54c.41,2.16.8,4.47,3.17,5.22,2.21.71,3-1.64,4.38-2.7.92-.7,1.77-1.5,2.71-2.18,10.84-7.72,22.21-6.66,33.51-1.51,5.28,2.41,10.3,3.51,15.84,1.37,3.36-1.3,6.87-1.06,10.31-.3,3.22.71,6.45,2.55,9.56,2.31,8.91-.69,16.63,2.32,24.23,6.23,12.13,10.73,13.88,23.53,8.9,38.51-1.91,5.76-1.5,12.21,3.75,17.53,5,5,7.25,11.87,8.83,18.75,3.9,16.91-1.68,33.08-4.2,49.46-1.55,10.08-6.76,18.6-13.11,26.44-4.72,3-10.48,5.24-12.38,10.87-4.65,13.75-13.13,24-25.82,30.93a6.66,6.66,0,0,0-3.76,5.36,60.94,60.94,0,0,1-5.6,16.45c-9.95,20.71-26.26,35.62-44.57,48.71-11.45,8.19-24.23,13.91-37.08,19.33-5.24,2.21-6.66,4.48-5.61,10.11,2.06,11.1,1.66,11.18,12.83,11.17,1.66,0,3.34-.09,5,0,9.75.75,18.13,4.78,25.6,10.87,5.72,4.66,8.51,11.5,12.31,17.8,6.75-6.64,14.3-10.92,23.23-12.46,3.52-.61,3.63-2.12,1.87-4.73q-10.38-15.42-3.26-32.64c1.16-2.82,2.15-5.61.07-8.49-3.28-4.54-3.21-9.82-2.52-14.91,1.16-8.62,6.39-14.56,14.23-17.87,5.54-2.34,8.65-.08,8.6,6a7.7,7.7,0,0,0,4.58,7.17,343.61,343.61,0,0,0,33.27,14.56,3.8,3.8,0,0,0,2,2.64c14.24,7.68,24.19,19.23,30.45,34,2.92,6.89,4.17,14.25,5.49,21.58-.62,4-3.44,7-5.11,10.54-2.85,2.56-4.17,6.5-7.64,8.5-1.64-1.24-.52-2.61-.25-4,2.37-12,1.31-23.52-4.87-34.31l-.8-1.12,0-.21-1-1.8,0-.06-.78-1.8,0-.28-.25-.11-1-.79h0a2.09,2.09,0,0,0-1-1.95l-.06-.26c-1.83-2.69-3.27-5.69-6.05-7.64l-.94-.22h.13c-.15-.44-.18-1-.48-1.29-11.72-10.59-24.88-18.34-40.77-20.73-2.11-3.34-5.58-2.8-9.37-4,1,2.74,2.05,4.24,3.51,5.31,4.76,3.47,8.52,7.95,12.64,12.06,12.71,12.67,16.82,27.71,11.42,44.85-8.39,26.63-32.94,40-60.47,36.4-11.61-1.49-22.16-7.13-33.56-8.71-9.55-1.32-15-7.1-20.29-13.73-4.48-5.67-6.69-12.53-9.16-19.27-4.31-11.73-9.38-23.38-9.64-36-.4-19.05-2.16-38.24,2.82-57.08,1-3.78-1.11-5.47-4.73-4.2-3,1-6.49,1.56-8.72,3.51-7.84,6.85-17.37,2.42-25.87,4.46-1,.24-2.11-.85-2.62-2,1-1.72,1.87-3.47,2.87-5.17,4.56-7.78,11.22-13.69,17.7-19.75,2.44-.52,4.86-1.17,7.31-1.54,28.61-4.29,57-9.77,85.45-15,16.56-3.08,33.29-5.9,43.31-21.93a18.87,18.87,0,0,0,4.24-6.91,127.55,127.55,0,0,0-22.19,1.55c-14.1,2.43-27.92,6.18-41.67,10-18.93,5.24-37.4,5.19-55.9-1.6-8.75-3.21-17.68-5.91-26.57-8.74-28.54-9.09-57.22-17.83-84.57-30.25-2.63-1.2-5.1-1-7.77-.56-10.58,1.58-20.81.81-30.73-3.81-6.86-3.19-12.62-7.89-18.75-12.1-3.32-2.58-4.32-6.95-7.47-9.66a75.42,75.42,0,0,1-9.72-28.14c0-2.17-1-2.78-3.18-2.4-6.22,1.09-12.6,1.51-18.68,3.09-17.37,4.49-29.63,14.66-34.06,32.7-1.76,7.17-1.68,14.51-1.11,21.83.26,3.43-.41,7.09,2.35,9.93.61,6.27.94,12.71,4.12,18.27,5.34,9.31,8.43,19.41,11.45,29.58,2.29,7.72,1.31,15.81,2.91,23.6,2,9.43,5.15,18.49,8.18,27.61,1.3,3.88,2.78,5.16,7,2.79,6.22-3.48,13.52,1.91,13.37,9.36-5.14-.28-9.36,1.88-13.11,5.11-5.47,4.71-9.36,10.72-13.63,16.46-2.57,3.45-2.38,5.66,1.31,7.66l17,14.71a2.21,2.21,0,0,0,2.46,2.62l3.48,4.35c-.09,1.11.38,1.71,1.53,1.7l.58,1.24a2.62,2.62,0,0,0,2.11,2.26c1.06.06,1.42-1,1.26-2.08L156.1,429c1.64-.46,1.84-1.77,1.9-3.16a1.33,1.33,0,0,1,.45-.62c1-.14,1.48-.67,1.24-1.72a1.8,1.8,0,0,1,.48-.51l2.06,0-.14,5.61c-1.06,3.74-2.31,7.45-1.83,11.44-1.51,5.12-1.52,10.35,1.19,14.87,3.33,5.54,4.68,11.52,5.78,17.68.43,2.44.25,5.2,1.37,7.25,3.86,7.07,8,14,12.34,20.78,4.8,7.55,11.9,13.12,17.76,19.78C200.74,522.75,202.08,526.07,206,526ZM355.18,103.1l1.7,1c1.47,3,2.92,6,4.44,8.92.36.69.88,1.6,1.88,1.27,1.33-.44.89-1.53.59-2.44-.88-2.72-1.64-5.49-2.75-8.12-3.62-8.62-7.78-16.9-16.23-22-13.71-8.21-32.6-5-44.31,7.22-5,5.26-8.29,11.56-11.49,18-4.49.14-9,.24-13.46.42-9.29.38-18.61-.63-27.88.59-9.89-5.1-19.37-11-29.82-15-15.63-6-31.5-8.44-47.88-3.48-20,6.07-33.26,20-40.21,38.92-4.12,11.23-4.82,23.71-5.48,35.86-.36,2.73-.6,5.48-1.12,8.18s.92,3.68,3.32,3.85l2.08-.84.08,0c9,0,17.94,0,26.9,0,1.6,0,3.58.4,4.2-1.72s-1.45-2.35-2.49-3.25c-9.61-8.28-13.22-23.14-8.18-33.5,8.18-16.83,27.19-24.58,43.67-21.62,9.57,1.71,18.16,5.93,26.16,11.47,4.37,3,7.47,7.94,12.65,9.52a88.51,88.51,0,0,1,27.88,14c1.88,1.42,3.18,1,4.73-.53,4-3.78,2.7-8.15,1.69-12.53.9-4.61-.73-8.75-2.41-12.88,3.51-.23,5.33,2.29,7.27,4.54,3.45,4,4.16,9,4.6,13.95.26,2.93,1.32,4.06,4.36,3.75a27.39,27.39,0,0,1,9.39.69c1.6.4,3.46,2.33,5,.37a5.89,5.89,0,0,0,.5-6.59c-.48-.95-1.54-1.84-.67-3.64,1.63,1,3.29,2.84,5.24.23,7-9.4,15.79-17.37,22.62-27a50,50,0,0,1,8.69-8.87c6.06-5.1,12.81-5.76,19.93-2.21,1,.5,1.81,1.54,3.14,1A2.4,2.4,0,0,0,355.18,103.1ZM194,241.47l1.36,1.3.4-.63-1.63-.82c-1.88-2-3.94-3.77-6.85-4.11-.23-.78-.49-1.55-1.52-1.49a.52.52,0,0,0-.34.32c-.05,1.05.74,1.27,1.51,1.5A8.89,8.89,0,0,0,194,241.47Zm252.09,193a.63.63,0,0,0,.41.65c4.12,4.12,10.3,4.22,14.83,8.47,1.34-5.73-1.13-9.43-3.66-13.11-.61-1.8-1.61-3.06-3.76-2.76l-1.15-.29c-2.24-1.39-3.24-4.23-5.93-5.1-.81-3.51-3.94-5.67-6.5-6.53-1.64-.55-2.17,4.06-3.36,6.26a8.85,8.85,0,0,0-.84,2.82c-.31,2.13.35,3.57,2.84,3.45,1,3.06,2.62,5.46,6.19,5.76Zm-14.6-277c-1.23,1.68-1.36,3.66-1.38,5.62,0,2.13-.08,4.4,2.21,5.58s4.2-.06,5.83-1.44c2.09-1.78,4.26-3.59,4.89-6.51l2.08-3.35c2.12-2.07,4.12-4.27,6.38-6.17a6.74,6.74,0,0,1,7.51-.63c2.49,1.45-.05,3.76-.76,5.57a30.37,30.37,0,0,1-2.5,4.18c-.77,1.3-1.63,2.83-.67,4.16s2.37,1.78,4.32,1.37a26.91,26.91,0,0,1,11.81.2c7.11,1.71,7.11,1.74,8.67-5.23.18-.8.21-1.64.31-2.46,4-10-1.16-21.36-11.25-24.34-3.51-1-7.26-1.74-9.69,2.33l-2.17.93c-.52-2.73-2.64-4.13-4.74-5.4-8.26-5-16.09-2.56-23.76,1.61l-4.13-1a25.47,25.47,0,0,0-21.76-8.85c-4.12.31-8.49,1.35-9.14,6.81-2.24,2.5-1.2,4.3,1.1,6.07,3.39,2.6,7.18,4.78,11.35,4.6,7.35-.31,10.79,3.92,13.4,9.72.63,1.4,1.44,2.71,2.52,4.72,2.4-5.52,4.88-10,8.83-13.48,1.61-1.42,3.35-2.44,5.4-1.5,2.32,1.06,2.5,3.32,2.29,5.55a29,29,0,0,1-.54,2.93C434.62,150.91,432.14,153.46,431.47,157.39ZM85.2,187.52c3.35,4.09,6.38,3.87,8.39-.56s4.58-8.69,10.18-8.59c4.69.08,6.22-2.09,6-6.28.16-2.44.32-4.87.54-8.09-10.26,5.45-18.44,12.42-26.49,19.55C81.64,185.52,83.32,186.67,85.2,187.52ZM80.07,71.38A1.21,1.21,0,0,0,79,73c-7.68,6-13.57,24.11-6.21,34.68,3.32,6.74,3.52,6.69,8.07,1a145.11,145.11,0,0,1,10.45-12c17.43-17.58,37.88-31.13,59.12-43.52,9.14-5.33,18.26-10.87,28.57-13.88,4.9,1.67-.27,2.89-.19,4.35a203.48,203.48,0,0,0-22.35,11.06c-14.56,8-28.68,16.75-41.49,27.45a90.23,90.23,0,0,0-28.32,26.5c10.79-7.14,19.92-16.28,30.61-23.43,2.26.88,4.17.06,6.08-1.13,9.17-5.68,18.34-11.36,27.57-16.94,5.22-3.16,10.48-6.25,15.87-9.11,2.76-1.46,5.77-2,7.72,1.56-1.1.71-2.16,1.51-3.31,2.14A484,484,0,0,0,85.07,120.9c-9.45,8.18-18.69,16.58-26.25,26.6-2.67,3.54-4.83,7.36-3.14,13.05,2.94-5.36,5.57-9.88,9.06-13.86,12.3-14,26.55-25.73,41.31-37A518.55,518.55,0,0,1,220.23,43.34c3.93,1.06,7.7-.47,11.54-.71,9-.58,18.11-1.76,26.78,2.26,6.07,2.81,6.58,2.41,7-4.88,1.24-4.13-1.69-5.78-4.57-7.09-7.89-3.59-16.08-3.4-24.32-1.34-13,3.24-24.37,10.29-36.56,15.43-1.55.66-3,2.37-5,.79a13.49,13.49,0,0,0-5.54-5.36c-3.87-5.3-9-9.28-14.1-13.27-14.88-11.61-25.94-12.39-42.17-3A204.19,204.19,0,0,0,86.48,62.92c-2.42,2.58-5.59,4.73-6.55,8.5ZM421.25,469.46c6.72,7.73,24.37,4.66,29.54-5.13,1.64-2.28-.36-2.74-1.74-3.55-10.54-6.18-24-3.69-32.69,6.23-1.3,1.48-4.41,3.22-3,5,1.72,2.2,3.61-1.23,5.6-1.68A16.36,16.36,0,0,0,421.25,469.46ZM65.56,251.18c3.59.16,6.77-1.22,9.81-2.84,1.67-.89,2.63-3.31,4.9-2.94,4.24.7,5.64-2.69,5.77-5.2.28-5.45,2.28-10.47,2.92-15.78a31.48,31.48,0,0,0,2.47-9.14c-4.7,2.75-7.78,6.41-11.09,9.76a138.45,138.45,0,0,0-17,20.05C61.17,248.31,62.11,250.55,65.56,251.18ZM394.37,470c-.25,1.4.09,2.69,1.66,2.66.8,0,.38-.9-.2-1.28.61-15.69-17.89-32.14-33.83-30-4.32.58-2.13,2.48-.64,4.13.29,3.57,3.46,5.43,5,8.29,5.94,11.27,17.76,12.43,28.07,16.16ZM180.86,140.39c-.06-1.45-1.56-3.85,2.1-2.55,6.85,2.43,13.69,3,20.16-1.28,1.95-.09,4,0,5.93-1.43a35.53,35.53,0,0,0-9.32-5.72c-9.91-4.33-19.75-4.4-29.19,1.23-6.64,4-8.95,10.49-5.68,17.12,3.37,6.8,6.15,9.06,11.59,2,2.43-1.41,4.36-3.17,4.43-6.25A3.2,3.2,0,0,0,180.86,140.39Zm160.85,73c3.32-8.8,2.42-7.35-4.88-8.32-5.73-.75-9.79-3.91-14.21-6.71-14.78-9.35-31.45-5.25-40.14,10-1.58.16-2.34,3.24-4.13,1.64-1.31-1.16-.34-3.16.21-4.72,2.11-5.94,6-10.71,10.24-15.21,4.74-5.07,5.13-7.86,1.44-13.79-2.22-3.57-7.31-4.93-12.05-3.25-4.48,1.6-4,4.88-3.24,8.6,1.91,9.89,2.24,19.92-.27,29.71-3.92,15.33-12,28-25.4,36.93-1,.69-2.79,1.08-2.79,2.59,0,1.74,2,1.36,3,2a13,13,0,0,0,2.27,1c30.44,12.19,62,21,93.09,31.24,15.22,5,30.16,6.41,46,2.41,22.45-5.66,44.7-12.42,68.2-13.34,14.06-.55,24.36-10.6,27-24.39,2.27-12,.72-24.6,5.45-36.26h0a8.18,8.18,0,0,0,.2-5.17,45.57,45.57,0,0,0-.9-5.37c-1.28-4.5-1.38-9.57-5.74-12.68-2.31-6.51-7.31-10.11-13.61-11.89-11.16-3.16-20.94,0-29.71,7.15-1.78,1.44-3.16,3.55-5.69,3.81-13.95,1.4-27.56,5.05-42,2.59-19.86-3.38-36.83,7.21-42.12,24.4-1.28.94-.8,2.46-1.22,3.68-2,6.46-2.65,13.17-3.28,21.09a30,30,0,0,1-6.56-20.45ZM273.61,93.59c1.35,1.86,3.05,2.35,5.38,1.24a132,132,0,0,0-9.55-18.55,105.61,105.61,0,0,0-12.78-15.9c-1.72-1.83-4-4.17-4.76.8-4.32.44-6.25,4.13-8.81,6.78-7.21,7.45-7.1,7.55,1.55,12.81.42.26.77.65,1.2.88C254.74,86.46,264.14,90.1,273.61,93.59Zm-69.84,60.09a9.44,9.44,0,0,0,1.27,1.46c14.49,10.94,28.74,22.18,42.43,34.11,5.47,4.77,10.78,9.72,16.28,14.68,4-11.91-1.29-32.21-10.59-41.54-2.53-4.28-6.35-7.21-10.45-9.77-18.15-11.35-40.56-9.69-58.14,4.22-15.45,12.22-22.14,36-15.49,55.19.37,1.08.37,2.54,1.83,2.95.53-2.95.11-5.74-.16-8.56a53.66,53.66,0,0,1,8.52-35.66C185,162,192.7,155.2,203.77,153.68ZM377,135.42a44.07,44.07,0,0,0-53.29-7.28c-16,9.25-25.08,31-20.31,49.27.39,1.46,0,4.49,2.77,3.8,2.09-.53.69-2.89.64-4.36-.32-9.9-.09-19.66,5.17-28.53,6.13,3.61,13,5.41,18.95,9.94,6.25,4.79,11.75,10.42,18.13,15.05,3.79,2.76,8.6,5,9.59,10.8.39,2.25,3.19,3.12,5.35,1.62,7.39-5.13,15.84-6.27,24.46-6.95,3.94,1.8,5.62.84,5.63-3.78C394.11,159.28,388,146.34,377,135.42ZM350.1,385.87a59.8,59.8,0,0,1,0,6c-.39,4,.92,4.93,4.83,3.58,12.84-4.45,24.47-11.08,35.49-18.88,16.45-11.63,29.7-26,38.05-44.57.67-1.48,2.08-3.16,1.06-4.64-1.23-1.8-3.36-.74-5.06-.39q-18.51,3.84-37,7.81c-2.26.49-4.64.94-6.4,2.6-6.63,6.23-14.55,10.43-22.51,14.57-1.92,1-3.86,1.88-4.3,4.43C352.52,366.16,350.1,375.85,350.1,385.87ZM129.76,191v.07c8.15-.38,16.3-.74,24.44-1.17,1.24-.07,2.92.14,2.92-1.86,0-2.22-1.77-1.56-2.91-1.52q-23.46.9-46.91,1.92c-1.51.06-3.44.11-3.35,2.09.13,2.63,2.39,1.59,3.86,1.53C115.13,191.75,122.44,191.36,129.76,191ZM92.24,292.15c-7.38,8.4-11.33,18.42-13.32,29.33A2.32,2.32,0,0,0,81,324.34c1.52.25,2-.86,2.33-2C86,312.2,91.11,302.85,92.24,292.15ZM293,162.57c-6.57-5.6-21.05-5.3-25.62-.54-.71.74-.89,1.29-.33,2.05a1.45,1.45,0,0,0,2.12.53C276.33,160.34,284.06,161.17,293,162.57ZM102.86,369.42c1.75-5.89,2.8-11.94,6-17.26.55-.91.84-3-.82-3.39s-1.76,1.54-2.26,2.68C103.36,357.16,103,363.26,102.86,369.42ZM343.28,112.27c-3.23-3.33-5.88-2.94-8.5-.91-.65.5-2.07.73-1.52,2,.46,1.07,1.3,1,2.41.62C338,113.28,340.4,112.9,343.28,112.27Z"/><path class="cls-1" d="M485.75,277.29c6.35-7.84,11.56-16.36,13.11-26.44,2.52-16.38,8.1-32.55,4.2-49.46-1.58-6.88-3.86-13.71-8.83-18.75-5.25-5.32-5.66-11.77-3.75-17.53,5-15,3.23-27.78-8.89-38.51,2.45-2.23-.35-3.89-.71-5.78-2.63-13.79-10-25.22-19.43-35-18-18.71-40.39-28.19-66.48-28.27-38-.11-76,0-114-.09-2.3,0-4.7.41-6.81-1,.68-2,1.43-4.09,2.05-6.16,4.59-15.22-1.38-26.22-16.68-30.78-9.8-2.91-19.41-1.86-28.87,1.53a140.19,140.19,0,0,0-25.35,11.67c-3.8,2.29-6.32,2.37-9.9-.93-8.78-8.07-17.4-16.49-29-20.85-9.88-3.73-19.84-3.91-29.07.84-27.31,14.05-51.94,31.64-70.08,57-11,15.35-11.78,31.7-2.79,48.23,2.08,3.83,1.84,6-1.37,8.72-4.83,4.08-8.89,9-13,13.81-10.12,12.05-8.91,25.82,3.17,35.93,1.4,1.17,2.64,2.53,4,3.81l-.21,53.14A27.89,27.89,0,0,1,55.66,235c-6.62,9-6.73,15.64-.39,24.94.74,1.09,1.46,2.2,2.18,3.3-.13,2-.38,4-.39,5.94Q57,324.59,57,380c0,5.82.16,11.64.25,17.46-11.1,6-20.62,13.7-27,24.89C25.41,430.87,23,440.05,22,449.71c-.16,1.63-.42,3.26-.63,4.89C13.53,444,10.63,431.41,7.22,419c-.52-1.89-.53-3.92-1.76-5.58q-1.2-6.06-2.39-12.13c1.74-2.39.18-4.66-.26-7-.06-.62-.12-1.24-.17-1.86.78-5.1-.26-10.06-1-15.05q-.15-40.06-.29-80.14c1.41-10.68.34-21.4.55-32.1.08-4.24.76-8.56-.58-12.75,0-3.37,0-6.75,0-10.13a23.18,23.18,0,0,0,0-11.84l0-11.18c1.07-1.49.57-3.2.58-4.81.05-11.57.11-23.15,0-34.72,0-3.42.73-6.91-.56-10.26q0-5.6,0-11.17a1,1,0,0,0,0-1.84c0-2.34.07-4.68.1-7,.1-.09.29-.18.28-.25a3.34,3.34,0,0,0-.18-.69c0-1.1.07-2.2.1-3.29.62-5.59,1.79-11.15,1.13-16.82.07-1,.15-2.08.22-3.12.73-4.82,1.79-9.63,2.07-14.48.18-3.25,3-6,1.57-9.41L7,99.31a8.32,8.32,0,0,0,1.58-5.93c.15-.69.29-1.38.44-2.07l9.9-22.78,1.24-2.17A6.81,6.81,0,0,0,23,61.56c.16-.3.33-.6.49-.91a2,2,0,0,0,1.45-2.12l.52-.9a2,2,0,0,0,1.48-2.07l.66-.93.61-.81.23-.23.68-.88.18-.25.7-.89,2.42-3c1.41-.55,2.48-1.38,2.56-3l3.58-3.87.71-.81.24-.24.74-.76.23-.25.79-.77,5.91-5.48a1.81,1.81,0,0,0,2-1.66C65.71,18,84.07,7.93,105.4,3.89A212.7,212.7,0,0,1,144.64.33c87-.11,173.93-.78,260.89.19,22.3.24,44.2,3.3,64.36,13.84,34.78,18.2,57.72,46.22,67.8,84.13,4.12,15.48,5.12,31.64,5.16,47.66q.31,115.7.08,231.39a179.66,179.66,0,0,1-16,73c-.53,1.2-1,2.5-2.24,3.22-1.32-7.33-2.57-14.69-5.49-21.58-6.26-14.78-16.21-26.33-30.45-34a3.8,3.8,0,0,1-2-2.64,14.84,14.84,0,0,0,.38-2.45q0-55.54-.13-111.09C487,280.31,486.94,278.65,485.75,277.29Z"/><path class="cls-3" d="M1.59,377.45c.79,5,1.83,9.95,1.05,15.05C-1.88,387.77,1.93,382.47,1.59,377.45Z"/><path class="cls-3" d="M1.3,230.49a23.18,23.18,0,0,1,0,11.84A15,15,0,0,1,1.3,230.49Z"/><path class="cls-3" d="M2.81,394.36c.44,2.31,2,4.58.26,7C2.74,399,1.21,396.75,2.81,394.36Z"/><path class="cls-3" d="M49.16,31.73a1.81,1.81,0,0,1-2,1.66C47.22,32.09,47.89,31.55,49.16,31.73Z"/><path class="cls-3" d="M41.27,38.87l-.79.77C40.42,39.05,40.67,38.79,41.27,38.87Z"/><path class="cls-3" d="M40.25,39.89l-.74.76C39.42,40.07,39.66,39.81,40.25,39.89Z"/><path class="cls-3" d="M30,51.57l-.7.89C29.53,52.16,29.76,51.86,30,51.57Z"/><path class="cls-3" d="M29.12,52.71l-.68.88Z"/><path class="cls-3" d="M39.27,40.89l-.71.81C38.41,41.09,38.67,40.84,39.27,40.89Z"/><path class="cls-4" d="M155.37,204.18a75.42,75.42,0,0,0,9.72,28.14c-5.65-.38-11.27-.86-16.72,1.46-13.35,5.7-20.73,19.23-18.9,34.65,1.45,12.19,7.8,21.82,16,30.37,12.36,12.9,28.24,20.31,44.11,27.72C197.11,330,205,332.87,212,337.39c2.82,1.8,3.61,3.76,2.16,7.07a107.43,107.43,0,0,0-8.45,30.16c-2.73.7-1.68,2.18-.76,3.64a10.71,10.71,0,0,0-.73,5.34A48.15,48.15,0,0,0,202,399.9a146.16,146.16,0,0,0-2.9,37.73c-.32,5.9-.64,11.79.27,17.66-1,8.48.42,16.78,1.88,25.08a83.31,83.31,0,0,0,6.27,27c2.21,5.51,4.14,11.13,6.19,16.7a.61.61,0,0,0-.62.44c-.53,0-.81.21-.76.77-1.53,0-3.16-.44-4.43.87L206,526c-3.89.06-5.23-3.26-7.27-5.58-5.86-6.66-13-12.23-17.76-19.78-4.32-6.79-8.48-13.71-12.34-20.78-1.12-2.05-.94-4.81-1.37-7.25-1.1-6.16-2.45-12.14-5.78-17.68-2.71-4.52-2.7-9.75-1.2-14.86,1.73-3.64,2.94-7.36,1.84-11.45,0-1.87.09-3.74.14-5.6.88-.79.92-1.86-.17-2.1-1.27-.29-1.81.85-1.89,2.07a1.64,1.64,0,0,0-.47.51c-1.14,0-1.59.6-1.25,1.72a1.36,1.36,0,0,0-.45.61c-1.84.33-1.89,1.74-1.9,3.17l-5.33,5.56-3.38-.18c-.19-.42-.39-.83-.58-1.24.14-1.15-.44-1.65-1.53-1.7l-3.48-4.35c.07-1.7-.87-2.47-2.46-2.62l-17-14.7c.16-2,1.76-3.15,2.84-4.57,6.79-8.9,14.79-16.7,22.59-24.67.15-7.45-7.15-12.84-13.37-9.36-4.23,2.37-5.71,1.09-7-2.79-3-9.12-6.23-18.18-8.18-27.61-1.6-7.79-.62-15.88-2.91-23.6-3-10.17-6.11-20.27-11.45-29.58-3.18-5.56-3.51-12-4.12-18.27,2.45-1,2.73-2.92,2.67-5.27-.15-6-.54-12,0-18,1.23-14,7.62-29.3,26.14-34.66C138.09,208.94,146.74,206.59,155.37,204.18Z"/><path class="cls-4" d="M506.84,434.48c6.18,10.79,7.24,22.31,4.87,34.31-.27,1.39-1.39,2.76.25,4-6.53,11.95-16.46,20.7-27.35,28.35-25.33,17.78-53.58,25.34-84.52,25.44-13.64,0-25.2-3.45-36.73-10A195.32,195.32,0,0,1,327,489.38c-4.71-5-8.76-10.64-14-15.19-1.08-4-3.81-6.87-6.38-9.87-4.5-10.13-9.21-20.17-12-30.94a13.82,13.82,0,0,0-.22-2.89c-3.62-12.75-4.15-25.8-3.3-38.89.77-11.76,2.26-23.43,8.78-33.74.51,1.17,1.62,2.26,2.62,2,8.5-2,18,2.39,25.87-4.46,2.23-1.95,5.75-2.47,8.72-3.51,3.62-1.27,5.73.42,4.73,4.2-5,18.84-3.22,38-2.82,57.08.26,12.58,5.33,24.23,9.64,36,2.47,6.74,4.68,13.6,9.16,19.27,5.26,6.63,10.74,12.41,20.29,13.73,11.4,1.58,21.95,7.22,33.56,8.71,27.53,3.56,52.08-9.77,60.47-36.4,5.4-17.14,1.29-32.18-11.42-44.85-4.12-4.11-7.88-8.59-12.64-12.06-1.46-1.07-2.51-2.57-3.51-5.31,3.79,1.18,7.26.64,9.37,4a7.19,7.19,0,0,0,3.37,4c6.94,4.22,13.95,8.34,20.94,12.49.61,1.72,1.71,2.49,3.55,1.86a24.4,24.4,0,0,0,8.22,3.52,40.4,40.4,0,0,0,12,8l.06.26c.06.78.07,1.59,1,1.95h0l1,.79.25.11,0,.28c.27.6.53,1.2.79,1.8l0,.06,1,1.8.05.21C506.52,433.58,505.74,434.7,506.84,434.48Z"/><path class="cls-4" d="M57.35,439.75a17.34,17.34,0,0,0-6.54-.11c-.72-.16-1.38,0-1.39.81a1.8,1.8,0,0,0,1.44,1.72L54,444.68a60.91,60.91,0,0,1,4.14,18.07c.28,3.25.37,6.76,1.66,9.65,3.86,8.66,3.84,18.37,7.77,27,1,2.18,0,3.16-2.3,2.83-1.13-.17-2.23-.52-3.34-.79l.11,0a1.53,1.53,0,0,0-1.53-1.05L58,498.68a1.62,1.62,0,0,0-1.54-1.28,88.51,88.51,0,0,1-22.35-22.54c-1.25-10-2.09-20.07.21-30,1.55-6.69,2.66-13.69,7.64-19.05,2.68-.4,4-2.39,5.3-4.45l9.21-6.26c1,.47,1.54.17,1.64-.92l2.34-1.08c1,.52,1.53.2,1.68-.88L66.41,411c.86.69,1.47.55,1.79-.54l4.22-.63a11,11,0,0,0,8.26.07l4.23.6c.3,1.09.91,1.22,1.77.57l5.25,1.3c.18,1.08.74,1.36,1.7.8l3.27,1.2c.17,1.09.75,1.33,1.7.82l2.4,1.06a3,3,0,0,0,3.55,2A92.59,92.59,0,0,1,119,428.74c13.7,11.95,24.54,26.06,31.78,42.83-1.06,1.15-.68,1.95.62,2.52l.58.76c-.38,1.34.09,1.91,1.48,1.67.14,6.11-.93,11.91-4.46,17.07-3.11-1.69-6.27-3.22-9.92-3.24.33-5.78-1.28-11-5.2-16.68-2.25,8.8-4.22,16.85-8.86,23.8-4.19-1.35-7.73-4.78-12.61-3.94.81-5.42,1.64-10.84-.13-16.23-.45-1.38-.44-3.44-2.08-3.62-1.87-.21-1.74,2-2.37,3.22-2.09,4.09-3.21,8.72-6.69,12-4.16-3.13-8.56-5.5-14-4.47-2.68-8.48-3.06-17.57-7-25.71-4.6-9.61-10.62-17.54-22.27-18.78C57.78,439.7,57.61,439.62,57.35,439.75Z"/><path class="cls-5" d="M294.57,433.38c2.83,10.77,7.54,20.81,12,30.94-9.4.28-18.28,3.11-27.19,5.68a134.66,134.66,0,0,0-26.49,10.23c-4.24,2.27-8.72,2.27-12.94,1.7a73.65,73.65,0,0,0-13.41-.51c-8.51.4-16.9-1.12-25.37-1.05-1.46-8.3-2.84-16.6-1.88-25.08.32,0,.72.06,1-.1,19.05-12.3,40-19.71,62.08-24.34C273.32,428.54,284.38,425.71,294.57,433.38Z"/><path class="cls-6" d="M61.93,501.41c1.11.27,2.21.62,3.34.79,2.26.33,3.29-.65,2.3-2.83-3.93-8.6-3.91-18.31-7.77-27-1.29-2.89-1.38-6.4-1.66-9.65A60.91,60.91,0,0,0,54,444.68c10.07,7.17,14.69,17.45,17,29.18,1.88,9.55,3.42,19.19,6.75,28.41,3.5,9.73,8.85,14.3,20.67,9.43,2-.81,2.54-.45,3,1.45.56,2.4,1.86,4.63,1.62,7.22a128.45,128.45,0,0,1-29.44-11.46C69.48,506.76,64.57,505.84,61.93,501.41Z"/><path class="cls-5" d="M313,474.19c5.21,4.55,9.26,10.18,14,15.19-3.62,4.11-8.58,3.5-13,2.83-9.78-1.49-19.56-.52-29.33-.84-2.5-.08-4.91-.17-7.47-2,4.23-4.92,10.47-5.55,15.71-7.86C299.4,478.65,306.27,476.6,313,474.19Z"/><path class="cls-6" d="M120.1,524.2c3.09-3.36,8.4-4.08,10.29-9,.47-1.22,1.68-.17,2.47.39,4.08,2.87,8.48,3.76,13.17,1.74,2.08-.9,2.51.19,3.09,1.83a22.33,22.33,0,0,1,1,6.87C140,526.81,130,526.69,120.1,524.2Z"/><path class="cls-6" d="M207.86,526.16c1.27-1.31,2.9-.83,4.43-.87l.76-.77a.61.61,0,0,1,.62-.44C213,528.33,209.89,525.74,207.86,526.16Z"/><path class="cls-6" d="M56.5,497.4A1.62,1.62,0,0,1,58,498.68Z"/><path class="cls-6" d="M60.51,500.4A1.53,1.53,0,0,1,62,501.45Z"/><path class="cls-4" d="M491.67,208.38a8.16,8.16,0,0,1-.19,5.19c-.29,0-.37-1-.86-.21l.91.2c-4.73,11.66-3.18,24.25-5.45,36.26-2.6,13.79-12.9,23.84-27,24.39-23.5.92-45.75,7.68-68.2,13.34-15.86,4-30.8,2.61-46-2.41-31.08-10.27-62.65-19.05-93.09-31.24a13,13,0,0,1-2.27-1c-1-.68-3-.3-3-2,0-1.51,1.75-1.9,2.79-2.59,13.4-8.93,21.48-21.6,25.4-36.93,2.51-9.79,2.18-19.82.27-29.71-.72-3.72-1.24-7,3.24-8.6,4.74-1.68,9.83-.32,12.05,3.25,3.69,5.93,3.3,8.72-1.44,13.79-4.22,4.5-8.13,9.27-10.24,15.21-.55,1.56-1.52,3.56-.21,4.72,1.79,1.6,2.55-1.48,4.13-1.64,2.95,2.43,4.76.21,6.8-1.56,9-7.79,16.73-8.66,26.39-3,3.22,1.88,5.93,4.72,10.31,4.08,1.6-.24,1.17,1.5.66,2.6-2.54,1.41-3.74,4-5.46,6.15-.79,1-1.93,2.29-.62,3.41a3,3,0,0,0,4.07-.28c2.58-2.38,5.06-4.88,7.58-7.32a14.62,14.62,0,0,1,7.73,1.62c0,2.27-1.09,4.71.9,6.72a30,30,0,0,0,6.56,20.46c.63-7.92,1.29-14.63,3.28-21.08,2.16.25,2.09-1.5,2.51-2.81l8.14-8.22.55,0-.23-.29c9.12-8,19.79-11.86,31.77-9.88,12.94,2.13,25.54,0,38.23-1.46,4.09-.47,8.13-1.47,11.61-4.11,15.13-11.45,25.71-11.77,40.69-1.42a80.23,80.23,0,0,1,5.87,15C490.05,207.69,489.57,209.7,491.67,208.38Zm-41.11,5c-.48,2,.73,2.59,2.17,2.09a46.91,46.91,0,0,1,20.1-2.52c2.3,8.3-.58,12.37-13.7,19,3.95,3.5,8.21,4.31,12.87,2.59,10.14-3.75,15.77-15.74,12.45-26.19-2.18-6.85-9.82-13.06-17.1-13.55-8.43-.55-15.39,2.51-20.13,9.61C444.45,208.57,445.94,212.06,450.56,213.41Zm-37.63,12.42c.69-6.88-3.18-11.74-9.76-15-8.73-4.31-17.31-4.14-25.7.8-9.08,5.35-13.75,14.14-12.43,23.14,1.16,8,8.37,15,17.55,17.06C396.48,255,412.84,241.42,412.93,225.83Z"/><path class="cls-5" d="M205.73,374.62a107.43,107.43,0,0,1,8.45-30.16c1.45-3.31.66-5.27-2.16-7.07-7.05-4.52-14.91-7.36-22.44-10.87-15.87-7.41-31.75-14.82-44.11-27.72-8.2-8.55-14.55-18.18-16-30.37-1.83-15.42,5.55-29,18.9-34.65,5.45-2.32,11.07-1.84,16.72-1.46,3.15,2.71,4.15,7.08,7.46,9.66-1.13,1.69-.23,3.19.49,4.66s1.63,2.66-.11,3.92a5.25,5.25,0,0,1-2.05-2.65,7,7,0,0,0-8.78-4.33c-7.87,2.45-13.22,12.72-10.9,20.94,9.47-9.68,9.74-9.67,19.41.16l1,1.07a142.42,142.42,0,0,0,52.17,35.15c9.82,3.81,20.07,6,30.27,8.35.52,1.06,1.16,1.14,1.91.22l15.86,1.59c5.66,2.34,11.4,1.43,17.14.44a9.25,9.25,0,0,0,7.06-2.89c2.15-2,3.54-4.31,1.93-7.33s-4.26-4.34-7.35-3.45c-5.9,1.69-11.88,1.44-17.83,1.3C254,298.69,235.89,295,219,286.29c1.47-1.2,3.33-1.37,5-2,6.88-2.31,14-3.54,21.09-5,3.36-.68,6.31-1.14,9.59-.17,9.6,2.85,18.87,6.7,28.35,9.85,10.47,3.48,21,6.89,31.83,9.42,10.26,2.4,20.07,6.69,30.12,10,8.08,2.66,16.43,4.33,24.92,3.71a126.32,126.32,0,0,0,23.38-4.26,637.93,637.93,0,0,1,63.13-13.5c-10,16-26.75,18.85-43.31,21.93-28.44,5.28-56.84,10.76-85.45,15-2.45.37-4.87,1-7.31,1.54a8.33,8.33,0,0,0-2.36-.48c-10.23.9-20.49,1.56-30.67,2.9s-20.54.63-30.46,3.83c-5.17,1.67-6.46,6.07-2.64,10,4.63,4.77,9.42,9.39,14.09,14.12,1.4,1.42,2.95,3.1,2.26,5.21-.83,2.53-3.33,1.73-5.19,1.72-15.4-.1-30.2,3.08-44.82,7.66-5.53,1.73-10.57,4.8-16.37,5.7a10.65,10.65,0,0,1,.73-5.33C206.63,377.35,206.18,376,205.73,374.62Z"/><path class="cls-6" d="M485.75,277.29c1.19,1.36,1.23,3,1.23,4.69q.07,55.54.13,111.09a14.84,14.84,0,0,1-.38,2.45A343.61,343.61,0,0,1,453.46,381a7.7,7.7,0,0,1-4.58-7.17c.05-6-3.06-8.3-8.6-6-7.84,3.31-13.07,9.25-14.23,17.87-.69,5.09-.76,10.37,2.52,14.91,2.08,2.88,1.09,5.67-.07,8.49q-7.08,17.19,3.26,32.64c1.76,2.61,1.65,4.12-1.87,4.73-8.93,1.54-16.48,5.82-23.23,12.46-3.8-6.3-6.59-13.14-12.31-17.8-7.47-6.09-15.85-10.12-25.6-10.87-1.65-.13-3.33,0-5,0-11.17,0-10.77-.07-12.83-11.17-1.05-5.63.37-7.9,5.61-10.11,12.85-5.42,25.63-11.14,37.08-19.33,18.31-13.09,34.62-28,44.57-48.71a60.94,60.94,0,0,0,5.6-16.45,6.66,6.66,0,0,1,3.76-5.36c12.69-6.88,21.17-17.18,25.82-30.93C475.27,282.53,481,280.26,485.75,277.29Z"/><path class="cls-6" d="M274.21,56.48c2.11,1.38,4.51,1,6.81,1,38,0,76,0,114,.09,26.09.08,48.45,9.56,66.48,28.27,9.44,9.79,16.8,21.22,19.43,35,.36,1.89,3.16,3.55.71,5.78-7.61-3.91-15.33-6.92-24.24-6.23-3.11.24-6.34-1.6-9.56-2.31-3.44-.76-7-1-10.31.3-5.54,2.14-10.56,1-15.84-1.37-11.3-5.15-22.67-6.21-33.51,1.51-.94.68-1.79,1.48-2.71,2.18-1.38,1.06-2.17,3.41-4.38,2.7-2.37-.75-2.76-3.06-3.17-5.22a79.22,79.22,0,0,0-17-36.54C344.52,61.8,315.31,63,298.92,76.12c-1.68,1.35-3.39,2.67-5,4.12-5.51,5-5.5,5.05-8.83-1.37A90.79,90.79,0,0,0,275,64.05C273.17,61.71,271.79,59.3,274.21,56.48Z"/><path class="cls-3" d="M204.24,383.6c5.8-.9,10.84-4,16.37-5.7,14.62-4.58,29.42-7.76,44.82-7.66,1.86,0,4.36.81,5.19-1.72.69-2.11-.86-3.79-2.26-5.21-4.67-4.73-9.46-9.35-14.09-14.12-3.82-3.93-2.53-8.33,2.64-10,9.92-3.2,20.31-2.51,30.46-3.83s20.44-2,30.67-2.9a8.33,8.33,0,0,1,2.36.48c-6.48,6.06-13.14,12-17.7,19.75-1,1.7-1.91,3.45-2.87,5.17-6.52,10.31-8,22-8.78,33.74-.85,13.09-.32,26.14,3.3,38.89a13.82,13.82,0,0,1,.22,2.89c-10.19-7.67-21.25-4.84-32.2-2.53-22.05,4.63-43,12-62.08,24.34-.24.16-.64.08-1,.1-.91-5.87-.59-11.76-.27-17.66,6.52-2.39,12.55-5.85,18.94-8.58a207.6,207.6,0,0,1,62.34-15.81c1.67-.16,3.51-.17,4.31-1.89,1-2.07-.68-3.32-1.88-4.7-4.28-4.92-9.71-8.49-14.6-12.7a22.83,22.83,0,0,0-14.43-5.65c-18.37-.92-35.13,5-51.78,11.6A48.15,48.15,0,0,1,204.24,383.6Z"/><path class="cls-4" d="M265.85,137.37c1,4.38,2.27,8.75-1.69,12.53-1.55,1.49-2.85,1.95-4.73.53a88.51,88.51,0,0,0-27.88-14c-5.18-1.58-8.28-6.5-12.65-9.52-8-5.54-16.59-9.76-26.16-11.47-16.48-3-35.49,4.79-43.67,21.62-5,10.36-1.43,25.22,8.18,33.5,1,.9,3.08,1.26,2.49,3.25s-2.6,1.71-4.2,1.72c-9,0-17.93,0-26.9,0-1.06-4.26.7-8.64-.52-12.9l.58-3.5a1.36,1.36,0,0,0,.17-2.38l1.8-11.29.33-.26-.23-.35.27-1.91.32-.2-.3,0c.2-.77.39-1.55.58-2.32a2.83,2.83,0,0,0,.31-.09,5.29,5.29,0,0,0-.15-.57c.25-1.13.5-2.27.74-3.4a1.56,1.56,0,0,0,.69-2.47c.33-.75.7-1.5,1-2.27,11.68-29.93,34.46-43.06,66-36.82,25.48,5,45.28,19.94,62.46,38.76C263.8,134.8,263.12,137.53,265.85,137.37Z"/><path class="cls-3" d="M456.47,294.42a637.93,637.93,0,0,0-63.13,13.5A126.32,126.32,0,0,1,370,312.18c-8.49.62-16.84-1.05-24.92-3.71-10.05-3.32-19.86-7.61-30.12-10-10.83-2.53-21.36-5.94-31.83-9.42-9.48-3.15-18.75-7-28.35-9.85-3.28-1-6.23-.51-9.59.17-7.1,1.44-14.21,2.67-21.09,5-1.71.58-3.57.75-5,2a64.43,64.43,0,0,1-14.85-7.82c-11.7-7.85-23-16.18-31.24-27.91,1.74-1.26.77-2.57.11-3.92s-1.62-3-.49-4.66c6.14,4.21,11.9,8.91,18.76,12.1,9.92,4.62,20.15,5.39,30.73,3.81,2.67-.4,5.14-.64,7.77.56,27.35,12.42,56,21.16,84.57,30.25,8.89,2.83,17.82,5.53,26.57,8.74,18.5,6.79,37,6.84,55.9,1.6,13.75-3.8,27.57-7.55,41.67-10a127.55,127.55,0,0,1,22.19-1.55A18.87,18.87,0,0,1,456.47,294.42Z"/><path class="cls-6" d="M57.26,397.47C57.17,391.65,57,385.83,57,380q0-55.42.05-110.85c0-2,.26-4,.39-5.94,7.76,6.69,15.15,13.86,24.16,19,2.2,1.25,1.11,2.58.17,4.1-5.73,9.34-11.26,18.75-13.21,29.81a37.92,37.92,0,0,0-.37,10.4c.35,3.36,1.9,6.28,5.4,7.76,5.8,2.46,11.5,5.16,17.31,7.58,3.18,1.33,4.27,2.74,3.45,6.7-2.94,14.17-4.52,28.5.76,42.57,1.43,3.85-1.06,3.47-3.18,3.18-7.91-1.1-15.82-1.74-23.69.11C64.55,395.26,60.92,396.43,57.26,397.47Z"/><path class="cls-4" d="M179,39.27c-10.31,3-19.43,8.55-28.57,13.88-21.24,12.39-41.69,25.94-59.12,43.52a145.11,145.11,0,0,0-10.45,12c-4.55,5.73-4.75,5.78-8.07-1,.82-8.91.24-18,5.35-26.18,3.77-6,8.2-11.52,12.5-17.14L91,64A4.77,4.77,0,0,0,94,60.54l.12-.11c2.23-.45,3.57-2,4.7-3.8a.43.43,0,0,0,.41-.35,172.2,172.2,0,0,0,22.6-17.47.7.7,0,0,0,.6-.37,1.62,1.62,0,0,0,1.84-1.26l3.06-1.94a9.82,9.82,0,0,0,5.55-3.54l2.52-1.38c7.09-3.26,14.3-6,22.33-5l2.36.65a2.3,2.3,0,0,0,2.67,1.2l2.16,1a4.4,4.4,0,0,0,3.67,2.25l1.79,1.37,0,.39.39-.05,1.18,1a1.49,1.49,0,0,0,1.71,1.32l3.24,2.68a1.73,1.73,0,0,0,2,1.69A.7.7,0,0,1,179,39.27Z"/><path class="cls-4" d="M350.1,385.87c0-10,2.42-19.71,4.12-29.5.44-2.55,2.38-3.43,4.3-4.43,8-4.14,15.88-8.34,22.51-14.57,1.76-1.66,4.14-2.11,6.4-2.6q18.48-4,37-7.81c1.7-.35,3.83-1.41,5.06.39,1,1.48-.39,3.16-1.06,4.64-8.35,18.55-21.6,32.94-38.05,44.57-11,7.8-22.65,14.43-35.49,18.88-3.91,1.35-5.22.45-4.83-3.58A59.8,59.8,0,0,0,350.1,385.87Z"/><path class="cls-4" d="M353.51,100.73c-1.33.54-2.15-.5-3.14-1-7.12-3.55-13.87-2.89-19.93,2.21a50,50,0,0,0-8.69,8.87c-6.83,9.61-15.58,17.58-22.62,27-1.95,2.61-3.61.81-5.24-.23-.87,1.8.19,2.69.67,3.64a5.89,5.89,0,0,1-.5,6.59c-1.54,2-3.4,0-5-.37a27.39,27.39,0,0,0-9.39-.69c-3,.31-4.1-.82-4.36-3.75-.44-5-1.15-9.95-4.6-13.95-1.94-2.25-3.76-4.77-7.27-4.54A77.92,77.92,0,0,0,247.67,108c9.27-1.22,18.59-.21,27.88-.59,4.49-.18,9-.28,13.46-.42.41,2-.92,4.31,1.64,6.33C301.41,91,318.47,81.37,343.08,87.36L343,88l.58-.35,4.21,3.07a4,4,0,0,0,3.95,4l3.11,5-.8.74A3.27,3.27,0,0,1,353.51,100.73Z"/><path class="cls-6" d="M388.45,178.78c-8.62.68-17.07,1.82-24.46,6.95-2.16,1.5-5,.63-5.35-1.62-1-5.78-5.8-8-9.59-10.8-6.38-4.63-11.88-10.26-18.13-15.05-5.92-4.53-12.82-6.33-18.95-9.94,2-5.72,6.24-9.6,10.83-13.08,2.65-2,5.25-4.72,9.2-3.87a9,9,0,0,0,1.28,1.46C352.64,147,370.63,162.78,388.45,178.78Z"/><path class="cls-4" d="M424.43,132.38l4.13,1c1.9,2.86,4.7,2.63,7.44,2,5.83-1.44,11.43-1.12,16.75,1.77,1.48.8,2.84,1.89,4.31.07l2.17-.93c9.47,1.44,15.5,6.86,17.75,16.09.56,2.29,1.27,4.41,3.19,5.92-.1.82-.13,1.66-.31,2.46-1.56,7-1.56,6.94-8.67,5.23a26.91,26.91,0,0,0-11.81-.2c-1.95.41-3.37-.06-4.32-1.37s-.1-2.86.67-4.16a30.37,30.37,0,0,0,2.5-4.18c.71-1.81,3.25-4.12.76-5.57a6.74,6.74,0,0,0-7.51.63c-2.26,1.9-4.26,4.1-6.38,6.17.34-5.15-2.05-7.94-7.22-8.34a29,29,0,0,0,.54-2.93c.21-2.23,0-4.49-2.29-5.55-2.05-.94-3.79.08-5.4,1.5-4,3.49-6.43,8-8.83,13.48-1.08-2-1.89-3.32-2.52-4.72-2.61-5.8-6.05-10-13.4-9.72-4.17.18-8-2-11.35-4.6-2.3-1.77-3.34-3.57-1.1-6.07a60.69,60.69,0,0,1,15.64-.62,1.57,1.57,0,0,0,2.38.67l6.56,1.39c.3.84.84.91,1.54.47C421.24,132.53,422.77,135,424.43,132.38Z"/><path class="cls-3" d="M388.45,178.78c-17.82-16-35.81-31.8-55.17-45.95a9,9,0,0,1-1.28-1.46,5.83,5.83,0,0,1,4-1.73c11.34-1.35,22.42-.69,32.84,4.66,1.9,1,3.94,1.71,5.89,2.6,1.59.73,2.1-.06,2.23-1.48,11,10.92,17.12,23.86,17.09,39.58C394.07,179.62,392.39,180.58,388.45,178.78Z"/><path class="cls-3" d="M253.16,162.39c9.3,9.33,14.59,29.63,10.59,41.54-5.5-5-10.81-9.91-16.28-14.68-13.69-11.93-27.94-23.17-42.43-34.11a9.44,9.44,0,0,1-1.27-1.46c7.9-3.86,16.21-2.5,24.39-1.65C237.44,153,245,158.55,253.16,162.39Z"/><path class="cls-5" d="M220.23,43.34a518.55,518.55,0,0,0-114.18,66.32c-14.76,11.3-29,23-41.31,37-3.49,4-6.12,8.5-9.06,13.86-1.69-5.69.47-9.51,3.14-13.05,7.56-10,16.8-18.42,26.25-26.6a484,484,0,0,1,86.12-59.18c1.15-.63,2.21-1.43,3.31-2.14,3.39-1.64,6.88-3.09,10.13-5,3.6-2.09,8.07-2.91,10.51-6.81,2,1.58,3.44-.13,5-.79,12.19-5.14,23.58-12.19,36.56-15.43,8.24-2.06,16.43-2.25,24.32,1.34,2.88,1.31,5.81,3,4.58,7.09-3.28-1.17-6.33-2.86-9.82-3.56C243,33.87,231.48,38,220.23,43.34Z"/><path class="cls-5" d="M247.67,108a77.92,77.92,0,0,1,15.77,16.51c1.68,4.13,3.31,8.27,2.41,12.88-2.73.16-2.05-2.57-3.17-3.79-17.18-18.82-37-33.73-62.46-38.76-31.52-6.24-54.3,6.89-66,36.82-.31.77-.68,1.52-1,2.27a2.34,2.34,0,0,0-.69,2.47c-.24,1.13-.49,2.27-.74,3.4l-.36.07.2.59c-.19.77-.38,1.55-.58,2.32l0,.15-.27,1.9-.35.07.25.55-1.8,11.28c-1.13.72-1.17,1.52-.17,2.39l-.57,3.5-3.85,1.68c.66-12.15,1.36-24.63,5.48-35.86,7-19,20.17-32.85,40.21-38.92,16.38-5,32.25-2.54,47.88,3.48C228.3,97,237.78,102.88,247.67,108Z"/><path class="cls-5" d="M484,191.88c-15-10.35-25.56-10-40.69,1.42-3.48,2.64-7.52,3.64-11.61,4.11-12.69,1.43-25.29,3.59-38.23,1.46-12-2-22.65,1.85-31.77,9.88l-.34,0,0,.34-8.14,8.21-1.29-.87c5.29-17.19,22.26-27.78,42.12-24.4,14.45,2.46,28.06-1.19,42-2.59,2.53-.26,3.91-2.37,5.69-3.81,8.77-7.12,18.55-10.31,29.71-7.15,6.3,1.78,11.3,5.38,13.61,11.89Z"/><path class="cls-6" d="M57.13,232.42l.21-53.14c3.57,1.72,7.16,3.4,10.71,5.17a6.79,6.79,0,0,1,4.25,6c.59,5.64,4.3,9.12,9.87,10.53,2.07.52,4.1,1.21,7,2.1C76.7,211.42,67.94,223,57.13,232.42Z"/><path class="cls-1" d="M195.14,47.8c-2.44,3.9-6.91,4.72-10.51,6.81-3.25,1.88-6.74,3.33-10.13,5-1.95-3.6-5-3-7.72-1.56-5.39,2.86-10.65,5.95-15.87,9.11-9.23,5.58-18.4,11.26-27.57,16.94-1.91,1.19-3.82,2-6.08,1.13L115,82.13c12.81-10.7,26.93-19.4,41.49-27.45a203.48,203.48,0,0,1,22.35-11.06c.13,2.26,1.42,2.08,3,1.5,2.58-.93,5.19-1.79,7.78-2.68A13.49,13.49,0,0,1,195.14,47.8Z"/><path class="cls-5" d="M150.8,471.57c-7.24-16.77-18.08-30.88-31.78-42.83a93,93,0,0,0-14.46-10.56c-.22-2.4-1.65-2.63-3.56-2l-2.4-1.06c.1-1.64-.51-1.83-1.7-.82l-3.27-1.2c.08-1.63-.53-1.81-1.7-.8L86.69,411c-.13-1.63-.75-1.73-1.78-.57l-4.23-.6c-2.73-2.16-5.48-2.11-8.26-.07l-4.22.62c-1-1-1.62-1-1.79.55l-4.24,1.28c-1.14-.82-1.77-.67-1.68.88l-2.33,1.07c-1.17-.79-1.79-.6-1.65.93l-9.2,6.25-2.14-1.19c10.22-14,28.88-19.76,47-14,18.75,6,32.83,18.55,45.28,33.2,7.8,9.18,13.68,19.37,15.93,31.38a16.58,16.58,0,0,1-.09,3.44l-1.27.66-.58-.75C152.24,473,152.2,472.12,150.8,471.57Z"/><path class="cls-5" d="M253.16,162.39c-8.18-3.84-15.72-9.39-25-10.36-8.18-.85-16.49-2.21-24.39,1.65C192.7,155.2,185,162,179.27,170.76a53.66,53.66,0,0,0-8.52,35.66c.27,2.82.69,5.61.16,8.56-1.46-.41-1.46-1.87-1.83-2.95-6.65-19.18,0-43,15.49-55.19,17.58-13.91,40-15.57,58.14-4.22C246.81,155.18,250.63,158.11,253.16,162.39Z"/><path class="cls-5" d="M377,135.42c-.13,1.42-.64,2.21-2.23,1.48-1.95-.89-4-1.62-5.89-2.6-10.42-5.35-21.5-6-32.84-4.66a5.83,5.83,0,0,0-4,1.73c-3.95-.85-6.55,1.85-9.2,3.87-4.59,3.48-8.87,7.36-10.83,13.08-5.26,8.87-5.49,18.63-5.17,28.53.05,1.47,1.45,3.83-.64,4.36-2.73.69-2.38-2.34-2.77-3.8-4.77-18.26,4.27-40,20.31-49.27A44.07,44.07,0,0,1,377,135.42Z"/><path class="cls-5" d="M347.81,90.68l-4.21-3.07-.15-.3-.37,0c-24.61-6-41.67,3.66-52.43,25.94-2.56-2-1.23-4.36-1.64-6.33,3.2-6.39,6.47-12.69,11.49-18,11.71-12.26,30.6-15.43,44.31-7.22,8.45,5.06,12.61,13.34,16.23,22,1.11,2.63,1.87,5.4,2.75,8.12.3.91.74,2-.59,2.44-1,.33-1.52-.58-1.88-1.27-1.52-3-3-5.94-4.44-8.92.47-.56.43-1-.26-1.37l-1.68-3-.07-.08c-1-1.65-2.07-3.31-3.11-5A5,5,0,0,0,347.81,90.68Z"/><path class="cls-5" d="M189.6,42.44c-2.59.89-5.2,1.75-7.78,2.68-1.59.58-2.88.76-3-1.5-.08-1.46,5.09-2.68.19-4.35a.7.7,0,0,0-.16-.5c-.08-1.22-.22-2.36-2-1.69l-3.23-2.68c.19-1.42-.36-1.9-1.72-1.32l-1.18-1v-.35h-.35l-1.78-1.36c-.26-2.33-1.76-2.65-3.68-2.26l-2.16-1c-.22-1.88-1.35-1.76-2.67-1.21l-2.36-.65c-4.39-3.7-18-.64-22.33,5L132.9,31.7c-3.06-.72-4.62.91-5.55,3.54l-3.06,1.93c-1.35-.66-2-.27-1.84,1.27a.7.7,0,0,1-.59.37C116.43,40,112.58,44,108.4,47.14c-3.39,2.56-7.78,4.44-9.15,9.14a.43.43,0,0,1-.4.35c-2.75-.19-4.13,1.3-4.71,3.8l-.12.1C91.7,60.56,91,62,91,64l-.32.33c-2.48,0-3.59,2-5.2,3.35s-2.75,3.85-5.51,3.71c1-3.77,4.13-5.92,6.55-8.5a204.19,204.19,0,0,1,46.85-36.74c16.23-9.4,27.29-8.62,42.17,3C180.6,33.16,185.73,37.14,189.6,42.44Z"/><path class="cls-4" d="M273.61,93.59c-9.47-3.49-18.87-7.13-27.77-11.94-.43-.23-.78-.62-1.2-.88-8.65-5.26-8.76-5.36-1.55-12.81,2.56-2.65,4.49-6.34,8.82-6.78C259.07,72,267.18,82.25,273.61,93.59Z"/><path class="cls-5" d="M155.37,204.18c-8.63,2.41-17.28,4.76-25.88,7.25-18.52,5.36-24.91,20.64-26.14,34.66-.53,5.94-.14,12,0,18,.06,2.35-.22,4.3-2.67,5.27-2.76-2.84-2.09-6.5-2.35-9.93-.57-7.32-.65-14.66,1.11-21.83,4.43-18,16.69-28.21,34.06-32.7,6.08-1.58,12.46-2,18.68-3.09C154.33,201.4,155.34,202,155.37,204.18Z"/><path class="cls-5" d="M326.64,210.42c.51-1.1.94-2.84-.66-2.6-4.38.64-7.09-2.2-10.31-4.08-9.66-5.64-17.42-4.77-26.39,3-2,1.77-3.85,4-6.8,1.56,8.69-15.24,25.36-19.34,40.14-10,4.42,2.8,8.48,6,14.21,6.71,7.3,1,8.2-.48,4.88,8.32l-1.77.64a14.72,14.72,0,0,0-7.73-1.63C330.87,210.26,328.67,210.57,326.64,210.42Z"/><path class="cls-5" d="M180.88,143.48c-.07,3.08-2,4.84-4.43,6.25-.66-.07-1.31-.19-2-.21-7.13-.22-9.18-3.44-5.56-9.74,7.91-13.79,24-13.61,34.2-3.22-6.47,4.31-13.31,3.71-20.16,1.28-3.66-1.3-2.16,1.1-2.1,2.55A1.94,1.94,0,0,0,180.88,143.48Z"/><path class="cls-4" d="M394.39,470c-10.31-3.73-22.13-4.89-28.07-16.16-1.5-2.86-4.67-4.72-5-8.29C375.89,448.9,387.3,456.51,394.39,470Z"/><path class="cls-5" d="M394.39,470c-7.09-13.45-18.5-21.06-33-24.45-1.49-1.65-3.68-3.55.64-4.13,15.94-2.16,34.44,14.29,33.83,30L394.37,470Z"/><path class="cls-4" d="M220.23,43.34C231.48,38,243,33.87,255.77,36.45c3.49.7,6.54,2.39,9.82,3.56-.46,7.29-1,7.69-7,4.88-8.67-4-17.73-2.84-26.78-2.26C227.93,42.87,224.16,44.4,220.23,43.34Z"/><path class="cls-3" d="M203.12,136.56c-10.17-10.39-26.29-10.57-34.2,3.22-3.62,6.3-1.57,9.52,5.56,9.74.66,0,1.31.14,2,.21-5.44,7.09-8.22,4.83-11.59-2-3.27-6.63-1-13.15,5.68-17.12,9.44-5.63,19.28-5.56,29.19-1.23a35.53,35.53,0,0,1,9.32,5.72C207.09,136.6,205.07,136.47,203.12,136.56Z"/><path class="cls-5" d="M273.61,93.59c-6.43-11.34-14.54-21.56-21.7-32.41.78-5,3-2.63,4.75-.8a105.61,105.61,0,0,1,12.78,15.9A132,132,0,0,1,279,94.83C276.66,95.94,275,95.45,273.61,93.59Z"/><path class="cls-5" d="M65.56,251.18c-3.45-.63-4.39-2.87-2.23-6.09a138.45,138.45,0,0,1,17-20.05c3.31-3.35,6.39-7,11.09-9.76A31.48,31.48,0,0,1,89,224.42C79.28,231.7,72.44,241.45,65.56,251.18Z"/><path class="cls-5" d="M478.18,412.75c-7-4.15-14-8.27-20.94-12.49a7.19,7.19,0,0,1-3.37-4c15.89,2.39,29.05,10.14,40.77,20.73.3.27.33.85.48,1.29-1.74.78-3.42-1.37-5.17-.11a24.26,24.26,0,0,1-8.21-3.52A2.82,2.82,0,0,0,478.18,412.75Z"/><path class="cls-5" d="M421.25,469.46a16.36,16.36,0,0,1-2.29.88c-2,.45-3.88,3.88-5.6,1.68-1.41-1.79,1.7-3.53,3-5,8.65-9.92,22.15-12.41,32.69-6.23,1.38.81,3.38,1.27,1.75,3.55C440.15,461.44,430.27,463,421.25,469.46Z"/><path class="cls-5" d="M147.73,380.54c-7.8,8-15.8,15.77-22.59,24.67-1.08,1.42-2.68,2.56-2.84,4.57-3.69-2-3.88-4.22-1.31-7.67,4.27-5.74,8.16-11.75,13.63-16.46C138.37,382.42,142.59,380.26,147.73,380.54Z"/><path class="cls-5" d="M129.76,191c-7.32.36-14.63.75-21.95,1.06-1.47.06-3.73,1.1-3.86-1.53-.09-2,1.84-2,3.35-2.09q23.46-1,46.91-1.92c1.14,0,2.92-.7,2.91,1.52,0,2-1.68,1.79-2.92,1.86-8.14.43-16.29.79-24.44,1.17Z"/><path class="cls-4" d="M65.56,251.18c6.88-9.73,13.72-19.48,23.4-26.76-.64,5.31-2.64,10.33-2.92,15.78-.13,2.51-1.53,5.9-5.77,5.2-2.27-.37-3.23,2-4.9,2.94C72.33,250,69.15,251.34,65.56,251.18Z"/><path class="cls-4" d="M421.25,469.46c9-6.5,18.9-8,29.55-5.13C445.62,474.12,428,477.19,421.25,469.46Z"/><path class="cls-3" d="M112.43,493.53c4.88-.84,8.42,2.59,12.61,3.94.39,5.22-2.68,9-5.47,12.85-1.88,2.57-4.12,2.16-6.15-.23C108.94,504.79,109.55,499.24,112.43,493.53Z"/><path class="cls-3" d="M79.93,71.42c2.76.14,3.79-2.3,5.51-3.71s2.72-3.39,5.2-3.35C86.34,70,81.91,75.45,78.14,81.5c-5.11,8.21-4.53,17.27-5.35,26.18C65.43,97.11,71.32,79,79,73c.35-.54.71-1.08,1.07-1.62Z"/><path class="cls-3" d="M87.12,484.46c5.48-1,9.88,1.34,14,4.47-.35,4.12-3.1,6.93-5.59,9.77-3.51,4-5.69,3.49-8-1.45C85.62,493,86.84,488.73,87.12,484.46Z"/><path class="cls-5" d="M85.2,187.52c-1.88-.85-3.56-2-1.33-4,8-7.13,16.23-14.1,26.49-19.55-.22,3.22-.38,5.65-.54,8.09a25.43,25.43,0,0,0-12.11,5.52Q91.47,182.58,85.2,187.52Z"/><path class="cls-5" d="M480.17,158.28c-1.92-1.51-2.63-3.63-3.19-5.92-2.25-9.23-8.28-14.65-17.75-16.09,2.43-4.07,6.18-3.36,9.69-2.33C479,136.92,484.19,148.32,480.17,158.28Z"/><path class="cls-3" d="M92.24,292.15c-1.13,10.7-6.21,20.05-8.88,30.15-.31,1.18-.81,2.29-2.33,2a2.32,2.32,0,0,1-2.11-2.86C80.91,310.57,84.86,300.55,92.24,292.15Z"/><path class="cls-6" d="M115,82.13l2.29,3.07c-10.69,7.15-19.82,16.29-30.61,23.43A90.23,90.23,0,0,1,115,82.13Z"/><path class="cls-3" d="M139.1,490.35c3.65,0,6.81,1.55,9.92,3.24.37,4.74-2.38,8.1-5.13,11.44-2.59,3.15-4.37,1.91-5.88-1.1-1.37-2.76-.76-5.48-.08-8.24C138.36,493.92,138.72,492.13,139.1,490.35Z"/><path class="cls-5" d="M424.43,132.38c-1.66,2.59-3.19.15-4.77-.12.24-.7,0-1.24-.71-1.29-.26,0-.56.52-.84.81l-6.56-1.39a1,1,0,0,0-.56-1.52,1.23,1.23,0,0,0-1.82.85,60.69,60.69,0,0,0-15.64.62c.65-5.46,5-6.5,9.14-6.81A25.47,25.47,0,0,1,424.43,132.38Z"/><path class="cls-5" d="M457.06,137.2c-1.47,1.82-2.83.73-4.31-.07-5.32-2.89-10.92-3.21-16.75-1.77-2.74.68-5.54.91-7.44-2,7.67-4.17,15.5-6.6,23.76-1.61C454.42,133.07,456.54,134.47,457.06,137.2Z"/><path class="cls-4" d="M452.73,427.38l1.16.29c.34,2.17,1.78,2.83,3.76,2.76,2.53,3.68,5,7.38,3.66,13.11-4.53-4.25-10.71-4.35-14.82-8.47a.51.51,0,0,0-.25-.78c1.41-.58,3.79.16,4-2,.11-1.33-1.69-1.16-2.81-1.25C447.69,427.62,449.93,427.08,452.73,427.38Z"/><path class="cls-3" d="M443,160.64c-.63,2.92-2.8,4.73-4.89,6.51-1.63,1.38-3.53,2.63-5.83,1.44s-2.24-3.45-2.21-5.58c0-2,.15-3.94,1.38-5.62C435.92,156.35,440.32,155.48,443,160.64Z"/><path class="cls-6" d="M85.2,187.52q6.26-5,12.51-9.91a25.43,25.43,0,0,1,12.11-5.52c.17,4.19-1.36,6.36-6,6.28-5.6-.1-8.15,4.12-10.18,8.59S88.55,191.61,85.2,187.52Z"/><path class="cls-5" d="M293,162.57c-8.95-1.4-16.68-2.23-23.83,2a1.45,1.45,0,0,1-2.12-.53c-.56-.76-.38-1.31.33-2.05C272,157.27,286.44,157,293,162.57Z"/><path class="cls-5" d="M443,160.64c-2.7-5.16-7.1-4.29-11.55-3.25.67-3.93,3.15-6.48,6.41-8.44,5.17.4,7.56,3.19,7.22,8.34Z"/><path class="cls-5" d="M439,428.28c-2.49.12-3.15-1.32-2.84-3.45A8.85,8.85,0,0,1,437,422c1.19-2.2,1.72-6.81,3.36-6.26,2.56.86,5.69,3,6.5,6.53C443.37,423.22,441.2,425.79,439,428.28Z"/><path class="cls-6" d="M439,428.28c2.25-2.49,4.42-5.06,7.86-6,2.69.87,3.69,3.71,5.92,5.1-2.8-.3-5,.24-5.32,3.63a5.18,5.18,0,0,0-2.27,3C441.57,433.74,440,431.34,439,428.28Z"/><path class="cls-3" d="M124.28,164.28l3.85-1.68c1.21,4.26-.55,8.64.51,12.9l-.08,0a1.76,1.76,0,0,0-2.08.84c-2.4-.17-3.87-1-3.32-3.85S123.92,167,124.28,164.28Z"/><path class="cls-3" d="M484,191.88l1.09-1.53c4.36,3.11,4.46,8.18,5.74,12.68a43.74,43.74,0,0,1,.89,5.36c-2.1,1.31-1.62-.7-1.85-1.54A80.23,80.23,0,0,0,484,191.88Z"/><path class="cls-6" d="M102.86,369.42c.12-6.16.5-12.26,3-18,.5-1.14.54-3.09,2.26-2.68s1.37,2.48.82,3.39C105.66,357.48,104.61,363.53,102.86,369.42Z"/><path class="cls-3" d="M490,418.13c1.75-1.26,3.43.89,5.17.11H495c.18.61.51.65.94.22,2.78,1.95,4.22,4.95,6.05,7.64A40.4,40.4,0,0,1,490,418.13Z"/><path class="cls-3" d="M343.28,112.27c-2.88.63-5.3,1-7.61,1.73-1.11.35-1.95.45-2.41-.62-.55-1.29.87-1.52,1.52-2C337.4,109.33,340.05,108.94,343.28,112.27Z"/><path class="cls-6" d="M162.09,428.63c1.1,4.09-.11,7.81-1.84,11.45C159.78,436.08,161,432.37,162.09,428.63Z"/><path class="cls-3" d="M445.14,434a5.18,5.18,0,0,1,2.27-3c1.11.09,2.91-.08,2.8,1.25-.18,2.19-2.56,1.45-4,2l-.17.13Z"/><path class="cls-3" d="M45.17,420.17l2.14,1.19c-1.29,2.07-2.63,4.06-5.31,4.46A7.53,7.53,0,0,1,45.17,420.17Z"/><path class="cls-6" d="M187.27,237.21c2.9.34,5,2.07,6.84,4.11l-.13.15a8.89,8.89,0,0,1-7.07-3.93Z"/><path class="cls-3" d="M339.94,214l1.77-.64-.87,7.36C338.85,218.71,340,216.27,339.94,214Z"/><path class="cls-6" d="M457.65,430.43c-2,.07-3.42-.59-3.76-2.76C456,427.37,457,428.63,457.65,430.43Z"/><path class="cls-6" d="M160.17,423c.08-1.22.62-2.36,1.89-2.07,1.09.24,1.05,1.31.17,2.1C161.55,423,160.86,423,160.17,423Z"/><path class="cls-6" d="M147.39,434.39l3.38.18c.15,1.06-.21,2.14-1.27,2.08A2.62,2.62,0,0,1,147.39,434.39Z"/><path class="cls-6" d="M139.34,424.48c1.59.15,2.53.92,2.46,2.62A2.21,2.21,0,0,1,139.34,424.48Z"/><path class="cls-4" d="M394.37,470l1.46,1.38c.58.38,1,1.26.2,1.28C394.46,472.67,394.12,471.38,394.37,470Z"/><path class="cls-6" d="M156.1,429c0-1.43.06-2.84,1.9-3.17C157.94,427.24,157.74,428.55,156.1,429Z"/><path class="cls-3" d="M351.9,216.41l1.29.87c-.42,1.32-.35,3.07-2.51,2.82C351.1,218.87,350.62,217.35,351.9,216.41Z"/><path class="cls-3" d="M152,474.85l1.27-.66.21,2.33C152.09,476.76,151.62,476.19,152,474.85Z"/><path class="cls-6" d="M50.86,442.17a1.8,1.8,0,0,1-1.44-1.72c0-.84.67-1,1.39-.81C50.83,440.49,50.85,441.33,50.86,442.17Z"/><path class="cls-6" d="M145.28,431.45c1.09.05,1.67.55,1.53,1.7C145.66,433.16,145.19,432.56,145.28,431.45Z"/><path class="cls-4" d="M354.94,99.72l1.68,3-1.44.35a2.4,2.4,0,0,1-1.67-2.37,3.27,3.27,0,0,0,.56-.35Z"/><path class="cls-3" d="M491.53,213.56l-.91-.2c.49-.75.57.17.86.21Z"/><path class="cls-6" d="M158.45,425.23c-.34-1.12.11-1.68,1.25-1.72C159.93,424.56,159.46,425.09,158.45,425.23Z"/><path class="cls-6" d="M186.91,237.54c-.77-.23-1.56-.45-1.51-1.5a.52.52,0,0,1,.34-.32c1-.06,1.29.71,1.53,1.49Z"/><path class="cls-3" d="M355.18,103.1l1.44-.35c.69.35.73.82.26,1.38Z"/><path class="cls-3" d="M180.88,143.48a1.94,1.94,0,0,1,0-3.09A3.2,3.2,0,0,1,180.88,143.48Z"/><path class="cls-6" d="M194.11,241.32l1.63.82-.4.63-1.36-1.3Z"/><path class="cls-3" d="M506.84,434.48c-1.1.22-.32-.9-.79-1.12Z"/><path class="cls-3" d="M503,428.3c-.9-.36-.91-1.17-1-1.95A2.09,2.09,0,0,1,503,428.3Z"/><path class="cls-3" d="M505,431.29c-.26-.6-.52-1.2-.79-1.8C504.46,430.09,504.72,430.69,505,431.29Z"/><path class="cls-3" d="M506,433.15l-1-1.8Z"/><path class="cls-4" d="M126.48,176.31a1.76,1.76,0,0,1,2.08-.84Z"/><path class="cls-5" d="M495.93,418.45c-.43.43-.76.39-.94-.22Z"/><path class="cls-6" d="M446.07,434.42l.17-.13a.51.51,0,0,1,.25.78A.62.62,0,0,1,446.07,434.42Z"/><path class="cls-6" d="M57.35,439.75c.26-.13.43-.05.53.22l-.32,0Z"/><path class="cls-3" d="M504,429.1l-1-.79Z"/><path class="cls-5" d="M80.07,71.38c-.36.54-.72,1.08-1.07,1.62A1.21,1.21,0,0,1,80.07,71.38Z"/><path class="cls-5" d="M202,399.9c16.65-6.59,33.41-12.52,51.78-11.6A22.83,22.83,0,0,1,268.17,394c4.89,4.21,10.32,7.78,14.6,12.7,1.2,1.38,2.85,2.63,1.88,4.7-.8,1.72-2.64,1.73-4.31,1.89A207.6,207.6,0,0,0,218,429.05c-6.39,2.73-12.42,6.19-18.94,8.58A146.16,146.16,0,0,1,202,399.9Z"/><path class="cls-3" d="M205.73,374.62c.45,1.37.9,2.73-.76,3.65C204.05,376.8,203,375.32,205.73,374.62Z"/><path class="cls-2" d="M213.05,524.52l-.76.77C212.24,524.73,212.52,524.5,213.05,524.52Z"/><path class="cls-3" d="M478.18,412.75a2.82,2.82,0,0,1,3.56,1.86C479.89,415.24,478.79,414.47,478.18,412.75Z"/><path class="cls-3" d="M72.42,409.78c2.78-2,5.53-2.09,8.26.07A11,11,0,0,1,72.42,409.78Z"/><path class="cls-3" d="M101,416.2c1.91-.65,3.34-.42,3.56,2A3,3,0,0,1,101,416.2Z"/><path class="cls-3" d="M150.8,471.57c1.4.55,1.44,1.44.62,2.53C150.12,473.52,149.74,472.72,150.8,471.57Z"/><path class="cls-3" d="M96.9,414.32c1.19-1,1.8-.82,1.7.82C97.65,415.65,97.07,415.41,96.9,414.32Z"/><path class="cls-3" d="M56.51,415.11c-.14-1.53.48-1.72,1.65-.93C58.05,415.28,57.5,415.58,56.51,415.11Z"/><path class="cls-3" d="M66.41,411c.17-1.57.83-1.57,1.79-.55C67.88,411.5,67.27,411.64,66.41,411Z"/><path class="cls-3" d="M84.91,410.45c1-1.16,1.65-1.06,1.78.57C85.82,411.67,85.21,411.54,84.91,410.45Z"/><path class="cls-3" d="M60.49,413.11c-.09-1.55.54-1.7,1.68-.88C62,413.31,61.47,413.63,60.49,413.11Z"/><path class="cls-3" d="M91.93,412.32c1.17-1,1.78-.83,1.7.8C92.67,413.68,92.11,413.4,91.93,412.32Z"/><path class="cls-2" d="M412.93,225.83c-.09,15.59-16.45,29.17-30.34,26-9.18-2.09-16.39-9.1-17.55-17.06-1.32-9,3.35-17.79,12.43-23.14,8.39-4.94,17-5.11,25.7-.8C409.75,214.09,413.62,219,412.93,225.83Zm-14.17-1c-2.27-4.24-5.84-6-10.57-5.56-5.22.48-8.84,3.1-10.74,8s-.15,8.81,4,11.55c4.81,3.14,10.83,2.41,15.18-1.53C400.59,233.83,401.24,229.94,398.76,224.88Z"/><path class="cls-2" d="M450.56,213.41c-4.62-1.35-6.11-4.84-3.34-9,4.74-7.1,11.7-10.16,20.13-9.61,7.28.49,14.92,6.7,17.1,13.55,3.32,10.45-2.31,22.44-12.45,26.19-4.66,1.72-8.92.91-12.87-2.59,13.12-6.62,16-10.69,13.7-19-3.92-8.1-10-9.66-17.22-4.26A62,62,0,0,0,450.56,213.41Z"/><path class="cls-5" d="M450.56,213.41a62,62,0,0,1,5.05-4.69c7.19-5.4,13.3-3.84,17.22,4.26a46.91,46.91,0,0,0-20.1,2.52C451.29,216,450.08,215.36,450.56,213.41Z"/><path class="cls-3" d="M326.64,210.42c2,.15,4.23-.16,5.57,2-2.52,2.45-5,4.95-7.58,7.33a3,3,0,0,1-4.07.28c-1.31-1.12-.17-2.43.62-3.41C322.9,214.44,324.1,211.83,326.64,210.42Z"/><path class="cls-3" d="M361.33,209.07l0-.34.34,0c.08.09.15.19.23.29Z"/><path class="cls-2" d="M172.93,250.56c8.24,11.73,19.54,20.06,31.24,27.91A64.43,64.43,0,0,0,219,286.29c16.87,8.71,35,12.4,53.8,12.84,5.95.14,11.93.39,17.83-1.3,3.09-.89,5.76.48,7.35,3.45s.22,5.31-1.93,7.33A9.25,9.25,0,0,1,289,311.5c-5.68-1.37-11.41-.64-17.14-.44L256,309.47l-1.91-.22c-10.2-2.36-20.45-4.54-30.27-8.35a142.42,142.42,0,0,1-52.17-35.15l-1-1.07c-9.67-9.83-9.94-9.84-19.41-.16-2.32-8.22,3-18.49,10.9-20.94a7,7,0,0,1,8.78,4.33A5.25,5.25,0,0,0,172.93,250.56Z"/><path class="cls-3" d="M271.87,311.06c5.73-.2,11.46-.93,17.14.44C283.27,312.49,277.53,313.4,271.87,311.06Z"/><path class="cls-3" d="M254.1,309.25l1.91.22C255.26,310.39,254.62,310.31,254.1,309.25Z"/><path class="cls-3" d="M128.7,159.1c-1-.87-1-1.67.17-2.39A1.37,1.37,0,0,1,128.7,159.1Z"/><path class="cls-3" d="M132.54,136.38a2.34,2.34,0,0,1,.69-2.47A1.56,1.56,0,0,1,132.54,136.38Z"/><path class="cls-3" d="M131.64,140.44l-.2-.59.36-.07a5.29,5.29,0,0,1,.15.57A2.83,2.83,0,0,1,131.64,140.44Z"/><path class="cls-3" d="M131,142.91l0-.15.3,0Z"/><path class="cls-3" d="M130.67,145.43l-.25-.55.35-.07.23.36Z"/><path class="cls-3" d="M99.25,56.28c1.37-4.7,5.76-6.58,9.15-9.14,4.18-3.16,8-7.11,13.46-8.33A173,173,0,0,1,99.25,56.28Z"/><path class="cls-3" d="M135.42,30.32c4.33-5.66,17.94-8.72,22.33-5C149.72,24.36,142.51,27.06,135.42,30.32Z"/><path class="cls-3" d="M127.35,35.24c.93-2.63,2.49-4.26,5.55-3.54A9.82,9.82,0,0,1,127.35,35.24Z"/><path class="cls-3" d="M94.14,60.43c.58-2.5,2-4,4.71-3.8C97.71,58.43,96.37,60,94.14,60.43Z"/><path class="cls-3" d="M164.94,28.12c1.92-.39,3.42-.07,3.68,2.26A4.44,4.44,0,0,1,164.94,28.12Z"/><path class="cls-3" d="M91,64c.08-2,.74-3.47,3.06-3.5A4.76,4.76,0,0,1,91,64Z"/><path class="cls-3" d="M160.11,26c1.32-.55,2.45-.67,2.67,1.21A2.32,2.32,0,0,1,160.11,26Z"/><path class="cls-3" d="M176.89,37.08c1.73-.67,1.87.47,2,1.69A1.73,1.73,0,0,1,176.89,37.08Z"/><path class="cls-3" d="M122.45,38.44c-.15-1.54.49-1.93,1.84-1.27A1.62,1.62,0,0,1,122.45,38.44Z"/><path class="cls-3" d="M171.94,33.08c1.36-.58,1.91-.1,1.72,1.32A1.5,1.5,0,0,1,171.94,33.08Z"/><polygon class="cls-3" points="170.4 31.74 170.75 31.73 170.76 32.08 170.37 32.13 170.4 31.74"/><path class="cls-3" d="M347.81,90.68a5,5,0,0,1,3.95,4A4,4,0,0,1,347.81,90.68Z"/><path class="cls-3" d="M343.08,87.36l.37,0,.15.3c-.2.11-.39.23-.58.35Z"/><path class="cls-3" d="M354.94,99.72l-.87.66.8-.74Z"/><path class="cls-3" d="M409.17,129.72a1.23,1.23,0,0,1,1.82-.85,1,1,0,0,1,.56,1.52A1.57,1.57,0,0,1,409.17,129.72Z"/><path class="cls-3" d="M418.11,131.78c.28-.29.58-.82.84-.81.73.05.95.59.71,1.29C419,132.69,418.41,132.62,418.11,131.78Z"/><path class="cls-4" d="M398.76,224.88c2.48,5.06,1.83,9-2.09,12.49-4.35,3.94-10.37,4.67-15.18,1.53-4.19-2.74-5.88-6.59-4-11.55Z"/><path class="cls-5" d="M398.76,224.88l-21.31,2.47c1.9-4.93,5.52-7.55,10.74-8C392.92,218.89,396.49,220.64,398.76,224.88Z"/><path class="cls-2" d="M21.43,454.72s-.62,7.07-.53,8.89a143.76,143.76,0,0,0,13.79,18.16L34,474.43Z"/></svg>